<svg enable-background="new 0 0 100 100" width="100" height="100" xmlns="http://www.w3.org/2000/svg">
 <path d="m50 8.332c-15.617 0-28.332 12.699-28.332 28.332 0 6.418 4.5508 17.535 13.516 33.016 3.5 6.0664 6.9336 11.484 9.1992 14.965 4.5664 7.0234 4.5664 7.0234 5.6172 7.0234 1.0664 0 1.0664 0 5.6328-7.0156 2.2656-3.4844 5.6992-8.8984 9.1992-14.965 8.9688-15.488 13.5-26.605 13.5-33.02 0-15.633-12.699-28.336-28.332-28.336zm0 43.336c-8.2656 0-15-6.7344-15-15 0-8.2852 6.7344-15 15-15 8.2852 0 15 6.7148 15 15 0 8.2656-6.7148 15-15 15z" fill="param(fill)" fill-opacity="param(fill-opacity)" stroke="param(outline)" stroke-opacity="param(outline-opacity)" stroke-width="param(outline-width)"/>
</svg>
