<?xml version="1.0" encoding="UTF-8"?>
<svg width="100pt" height="100pt" version="1.1" viewBox="0 0 100 100" xmlns="http://www.w3.org/2000/svg">
 <path d="m16 22c-0.92969 0-1.8086 0.21875-2.5938 0.59375l33.781 34.156c1.5703 1.5898 3.9883 1.5898 5.5625 0l33.844-34.156c-0.78516-0.375-1.6641-0.59375-2.5938-0.59375zm73.406 3.4062l-25.375 25.656 25.375 23.562c0.38281-0.78906 0.59375-1.6836 0.59375-2.625v-44c0-0.92969-0.21875-1.8086-0.59375-2.5938zm-78.844 0.03125c-0.36328 0.77344-0.5625 1.6484-0.5625 2.5625v44c0 0.94141 0.21094 1.8359 0.59375 2.625l25.344-23.531zm50.625 28.469l-5.5938 5.6562c-3.0898 3.1211-8.1641 3.125-11.25 0l-5.5625-5.625-25.312 23.5c0.76953 0.35547 1.625 0.5625 2.5312 0.5625h68c0.90625 0 1.7617-0.20703 2.5312-0.5625z"/>
</svg>
