<?xml version="1.0" encoding="utf-8"?>
<svg version="1.2" xmlns="http://www.w3.org/2000/svg" xmlns:xlink="http://www.w3.org/1999/xlink"
	 x="0px" y="0px" width="24px" height="24px" viewBox="0 0 24 24">
<path d="M10.731,11.433l3.109,2.893l7.42-7.539l-3.108-2.892L10.731,11.433z M23.574,2.611l-1.182-1.098
			C21.841,1,20.975,1.021,20.451,1.556l-1.482,1.519l3.17,2.95l1.481-1.515C24.145,3.972,24.123,3.122,23.574,2.611z M9.188,15.961
			l3.884-0.845l-3.042-2.83L9.188,15.961z"/>
<polygon points="21.039,22.92 0,22.92 0,3.36 15.899,3.36 15.899,4.36 1,4.36 1,21.92 20.039,21.92 20.039,8.998 21.039,8.998"/>
</svg>
